<svg width="200" height="141" viewBox="0 0 200 141" fill="none" xmlns="http://www.w3.org/2000/svg">
<path d="M57.1016 28.2537C63.3852 28.2537 68.4791 23.1651 68.4791 16.888C68.4791 10.6109 63.3852 5.52234 57.1016 5.52234C50.818 5.52234 45.7241 10.6109 45.7241 16.888C45.7241 23.1651 50.818 28.2537 57.1016 28.2537Z" stroke="#2463FF" stroke-width="6" stroke-miterlimit="10"/>
<path d="M106.536 69.0061C99.9041 67.3955 93.6373 64.8428 87.8269 61.196C82.0165 57.5493 77.9096 53.2947 73.2552 48.7971C69.1484 44.816 64.3723 41.3516 58.501 40.8654C52.6298 40.3792 46.4847 42.9015 41.8911 46.761C37.0238 50.8636 33.6774 56.5464 30.9091 62.1989C27.8366 68.4287 25.1595 74.9625 23.6081 81.7394C22.2087 87.8781 20.8093 95.4755 23.5168 101.462C25.7071 106.325 30.392 109.637 35.4723 111.035C42.5604 112.98 49.8919 110.883 56.402 107.996C63.9768 104.653 71.1258 100.368 77.8488 95.5362C81.7731 92.71 78.0009 86.1459 74.0158 89.0025C69.1484 92.4973 64.0681 95.6882 58.7444 98.484C53.4207 101.28 48.0058 103.985 42.0736 104.228C37.7234 104.41 32.5214 102.769 30.4832 98.5752C28.08 93.6825 30.2399 86.0851 31.5784 81.1316C33.1299 75.4791 35.381 70.1002 38.0277 64.8732C40.4918 60.0412 43.3513 55.0269 47.7928 51.7449C51.8692 48.7059 57.2233 47.2776 61.969 49.6176C66.7147 51.9576 69.696 56.1817 73.2856 59.555C82.0469 67.7602 92.8768 73.5038 104.528 76.3604C109.274 77.5152 111.282 70.2217 106.536 69.0669V69.0061Z" fill="#2463FF"/>
<path d="M70.487 82.5599C72.4339 70.7383 77.788 58.8256 88.1008 52.0184C93.1507 48.6755 99.0523 46.5786 105.137 46.5178C111.738 46.4571 116.544 48.7667 120.712 53.8113C128.47 63.2625 131.633 76.0261 133.337 87.8781C134.037 92.71 133.732 103.073 126.066 100.915C120.408 99.3349 115.875 92.8923 112.894 88.1819C110.308 84.0794 103.737 87.8477 106.353 92.011C111.677 100.49 123.633 114.439 134.797 106.598C145.962 98.7575 140.608 82.4383 137.778 72.1666C134.767 61.196 129.017 47.5815 118.461 41.8378C107.905 36.0942 92.9377 39.3459 83.3247 46.0924C71.9472 54.0848 65.3763 67.0308 63.1555 80.5238C62.3646 85.2949 69.6656 87.331 70.4566 82.5295L70.487 82.5599Z" fill="#2463FF"/>
<path d="M125.245 52.2616C129.838 51.0156 132.972 47.7639 136.318 44.6034C139.664 41.4429 143.041 39.8018 147.543 41.4733C157.765 45.2416 159.56 58.8257 161.598 68.0337C162.937 74.1724 164.062 80.4327 164.153 86.7233C164.214 91.0994 163.636 96.6303 158.191 97.147C153.171 97.6028 148.061 93.6218 144.288 90.7652C139.512 87.1488 135.223 82.9246 130.934 78.7613C127.435 75.3576 122.081 80.7062 125.579 84.1098C133.093 91.4033 141.338 100.034 151.437 103.65C156.061 105.291 161.568 105.2 165.674 102.283C169.781 99.3654 171.211 94.7766 171.637 90.0662C172.61 78.9436 169.447 66.8486 166.557 56.1818C163.971 46.6091 158.951 36.8844 148.73 33.9366C143.893 32.5691 138.782 33.2985 134.675 36.2159C130.873 38.9205 127.922 43.7221 123.267 44.9985C118.613 46.2748 120.56 53.5683 125.275 52.2919L125.245 52.2616Z" fill="#2463FF"/>
<path d="M102.581 30.7761C108.865 30.7761 113.959 25.6875 113.959 19.4104C113.959 13.1333 108.865 8.04468 102.581 8.04468C96.2975 8.04468 91.2036 13.1333 91.2036 19.4104C91.2036 25.6875 96.2975 30.7761 102.581 30.7761Z" stroke="#2463FF" stroke-width="6" stroke-miterlimit="10"/>
<path d="M145.505 25.7314C151.789 25.7314 156.883 20.6428 156.883 14.3657C156.883 8.0886 151.789 3 145.505 3C139.222 3 134.128 8.0886 134.128 14.3657C134.128 20.6428 139.222 25.7314 145.505 25.7314Z" stroke="#2463FF" stroke-width="6" stroke-miterlimit="10"/>
<path d="M20.3228 65.3898C10.8618 67.8514 5.26436 76.6947 2.25267 85.4165C-1.09364 95.0804 -1.0328 106.233 4.62551 115.046C16.0943 132.855 39.7314 139.115 59.5964 140.33C71.7648 141.06 83.9332 140.179 96.0712 139.54C108.209 138.902 121.229 138.203 133.793 137.535C154.632 136.41 178.664 136.684 192.141 117.903C205.617 99.1222 199.868 74.7498 181.828 62.2597C177.813 59.4942 174.01 66.028 177.995 68.7934C192.08 78.5181 195.974 97.7547 186.878 112.19C176.2 129.086 154.54 128.843 136.805 129.816C116.392 130.91 95.9495 132.399 75.537 132.976C56.8585 133.493 36.8718 132.004 21.0833 120.972C12.6871 115.107 6.90709 107.084 7.60678 96.4783C8.18478 87.6958 12.9 75.2056 22.361 72.7137C27.0762 71.4677 25.0685 64.1742 20.3532 65.4202L20.3228 65.3898Z" fill="#2463FF"/>
</svg>
