<svg width="28" height="28" viewBox="0 0 28 28" fill="none" xmlns="http://www.w3.org/2000/svg">
<path d="M5.64009 14.0001C5.64009 18.6225 9.37763 22.3601 14.0001 22.3601C18.6225 22.3601 22.3601 18.6225 22.3601 14.0001C22.3601 9.37763 18.6225 5.64009 14.0001 5.64009C9.37763 5.64009 5.64009 9.37763 5.64009 14.0001ZM7.00009 14.0001C7.00009 10.1265 10.1265 7.00009 14.0001 7.00009C17.8736 7.00009 21.0001 10.1265 21.0001 14.0001C21.0001 17.8736 17.8736 21.0001 14.0001 21.0001C10.1265 21.0001 7.00009 17.8736 7.00009 14.0001Z" fill="#585858" stroke="#585858" stroke-width="0.4"/>
<path d="M10.1599 13.32C9.78438 13.32 9.47993 13.6245 9.47993 14C9.47993 14.3756 9.78438 14.68 10.1599 14.68H17.8399C18.2155 14.68 18.5199 14.3756 18.5199 14C18.5199 13.6245 18.2155 13.32 17.8399 13.32H10.1599Z" fill="#585858" stroke="#585858" stroke-width="0.4"/>
<path d="M14 9.47993C13.6245 9.47993 13.32 9.78438 13.32 10.1599V17.8399C13.32 18.2155 13.6245 18.5199 14 18.5199C14.3756 18.5199 14.68 18.2155 14.68 17.8399V10.1599C14.68 9.78438 14.3756 9.47993 14 9.47993Z" fill="#585858" stroke="#585858" stroke-width="0.4"/>
</svg>
