<svg width="185" height="39" viewBox="0 0 185 39" fill="none" xmlns="http://www.w3.org/2000/svg">
<path d="M20.6976 13.499C16.104 13.2862 7.40362 13.2862 2.62752 13.5597C1.41067 13.6205 0.345936 12.8 0.0721467 11.6148V11.4325C-0.292906 9.97377 0.771831 8.54547 2.26246 8.42391C7.25151 8.08962 16.0432 7.96806 21.0323 8.30235C22.5229 8.39352 23.5572 9.79144 23.2834 11.2501L23.2226 11.4933C22.9792 12.7088 21.9145 13.5597 20.6976 13.499ZM12.0276 14.9273C16.104 15.0184 19.572 16.933 21.5494 20.0023H25.2912C25.3825 17.9662 25.0783 7.93767 24.774 3.31846C24.6828 2.0421 25.565 0.917681 26.8427 0.704953L28.4854 0.431447C29.9152 0.18833 31.2233 1.19119 31.3754 2.6195C32.1359 10.0346 32.3185 28.9369 31.71 36.3823C31.5884 37.8106 30.3107 38.8439 28.8809 38.6312L27.3294 38.4184C26.0213 38.2361 25.1087 37.0509 25.1999 35.7441C25.4737 32.1278 25.4433 27.6605 25.3825 25.3205H23.3747C23.3747 25.6852 23.4355 26.0499 23.4355 26.4145C23.5876 32.9483 18.3552 38.388 11.9059 38.388C5.45667 38.388 0.0113051 33.313 0.315516 26.4145C0.619726 18.8475 6.2172 14.8969 12.058 14.9577L12.0276 14.9273ZM19.0853 5.50651C15.0393 5.35456 8.19457 5.32417 4.51362 5.44573C3.35762 5.47612 2.35373 4.71637 2.04952 3.62235C1.65404 2.10287 2.71878 0.613786 4.30067 0.492227C8.5292 0.218721 15.2218 0.127556 19.3895 0.401062C20.8801 0.492231 21.9449 1.92054 21.6407 3.37924V3.53118C21.3669 4.71638 20.3021 5.5369 19.0853 5.50651ZM11.9972 33.5257C14.6743 33.5257 17.1688 30.7906 17.1688 26.4449C17.1688 21.8257 14.6438 19.9719 12.0276 19.9719C9.25931 19.9719 6.85604 21.9777 6.64309 26.5057C6.49099 30.426 8.95509 33.5257 11.9668 33.5257H11.9972ZM39.8325 2.22443C40.6234 9.73066 40.7147 28.9065 40.2279 36.1088C40.1367 37.5371 38.859 38.54 37.4292 38.388L35.7256 38.1753C34.4479 38.0234 33.5049 36.9293 33.5657 35.653C33.7787 28.9673 33.657 10.1561 33.1702 2.98417C33.079 1.70781 33.9612 0.553009 35.2389 0.340282L36.9425 0.0363791C38.3722 -0.206737 39.6804 0.796122 39.8325 2.22443Z" fill="#2463FF"/>
<path d="M65.873 36.8687C64.0781 34.7414 61.7661 31.7328 60.093 29.5752C59.0891 28.2988 57.1725 28.238 56.1382 29.484C54.1 31.9152 51.0579 35.3796 48.8372 37.6892C47.9854 38.5705 46.586 38.7224 45.5821 38.0235L44.852 37.5068C43.5743 36.6255 43.3614 34.8326 44.3957 33.6778C48.898 28.785 56.4424 19.1819 58.9978 15.2921C59.5758 14.3804 60.3363 14.0157 58.9978 13.8638C56.99 13.8638 51.4838 14.0157 47.3161 14.2588C45.9168 14.35 44.7303 13.3167 44.6087 11.9188V11.6757C44.487 10.2778 45.5517 9.03181 46.9815 8.94064C51.5142 8.63674 58.1156 8.42402 62.5571 8.66713C67.029 9.21415 67.7287 12.4658 66.451 14.745C65.4167 16.6292 64.0173 18.8476 62.9221 20.4583C62.3441 21.37 62.3745 22.4944 63.0134 23.3757C64.9299 25.9588 68.2458 30.1526 70.6187 32.9484C71.5921 34.1032 71.3488 35.8354 70.1319 36.6863L69.3105 37.2637C68.2154 38.0235 66.7552 37.8107 65.9338 36.8079L65.873 36.8687ZM49.689 0.674683C53.4003 0.401177 58.9978 0.218836 63.1047 0.279615C64.5344 0.279615 65.66 1.52559 65.5688 2.9539V3.13623C65.4775 4.50376 64.3519 5.53701 63.0134 5.53701C58.9674 5.50662 53.4308 5.78013 50.1149 5.99286C48.8068 6.08403 47.6508 5.17234 47.4378 3.86559V3.59208C47.1336 2.13338 48.1983 0.735455 49.689 0.644287V0.674683ZM69.6756 8.78869L72.4439 8.72791C73.8737 8.69752 74.9993 7.48195 74.9384 6.05364C74.908 5.17234 74.8472 4.16948 74.7863 3.25779C74.6951 1.95104 75.6077 0.796233 76.8854 0.583506L78.6194 0.279615C80.0796 0.0364984 81.479 1.06974 81.5702 2.55883C82.1787 10.1258 82.4524 28.9978 82.1482 36.2001C82.0874 37.6892 80.8097 38.8136 79.3191 38.6313L77.7372 38.4489C76.4291 38.297 75.4556 37.203 75.486 35.8962C75.5469 33.3739 75.5773 29.3928 75.5469 26.7489C75.5469 25.351 74.3909 24.2266 72.9915 24.257H69.4627C68.1241 24.257 66.9985 23.2237 66.9073 21.8866C66.816 20.4279 67.972 19.2123 69.4018 19.1819L72.8698 19.1212C74.2692 19.1212 75.3948 17.936 75.3643 16.538C75.3643 16.538 75.3643 16.5076 75.3643 16.4773C75.3643 15.0793 74.2083 13.9853 72.809 13.9853H69.7364C68.3675 13.9853 67.2115 12.9217 67.1811 11.5238V11.4022C67.1507 10.0043 68.2458 8.81908 69.6756 8.78869Z" fill="#2463FF"/>
<path d="M112.417 26.1105C112.417 27.7516 112.387 29.5142 112.265 31.3071C112.174 32.462 113.086 33.404 114.242 33.404C117.71 33.3736 123.125 33.1305 126.502 32.9178C127.476 32.857 128.358 33.5256 128.571 34.4677L128.905 35.8656C129.179 37.0812 128.327 38.2664 127.08 38.3271C118.045 38.8134 101.07 38.9957 91.0919 38.4487C89.9055 38.3879 89.0537 37.3243 89.2058 36.1695L89.3884 34.802C89.5405 33.7687 90.4531 33.009 91.4874 33.0697C96.2027 33.3129 100.614 33.3736 103.473 33.3129C104.477 33.3129 105.299 32.4923 105.359 31.4895C105.481 29.8181 105.542 27.9035 105.603 26.1105C105.603 24.9861 104.721 24.0744 103.595 24.044C99.6098 23.9833 96.3548 23.9225 95.3813 23.8009C91.4266 23.2843 91.0311 22.1599 90.6356 19.364C90.2401 16.3859 90.2401 7.90718 90.5443 4.74667C90.6965 2.92329 90.6965 1.00874 94.5904 0.583285C98.971 -0.0245065 118.897 -0.0245065 122.852 0.583285C125.711 1.09991 127.323 1.82926 127.597 4.65549C128.054 8.02873 127.78 16.7202 127.597 19.4552C127.354 22.3726 125.62 23.2539 122.426 23.8009C121.239 23.9833 118.136 24.1048 114.425 24.1048C113.33 24.1048 112.417 25.0165 112.417 26.1105ZM121.239 17.2976C121.483 15.383 121.483 9.3051 121.239 6.78276C121.148 5.59757 121.148 5.5064 120.448 5.44562C117.984 5.2329 99.7923 5.2329 98.0279 5.5064C97.1761 5.65835 97.024 5.62796 96.9328 6.23575C96.3852 9.36587 96.2939 14.4713 96.8719 17.6015C97.024 18.4828 97.2066 18.6347 97.9062 18.6955C99.549 18.969 119.11 18.9386 119.992 18.6955C121.908 18.3308 121.27 17.176 121.27 17.2672L121.239 17.2976Z" fill="#2463FF"/>
<path d="M144.085 0.644139C151.082 0.735308 156.467 6.81323 156.01 19.5465C155.554 32.5228 151.66 38.2664 144.237 38.3576C136.936 38.4792 132.099 31.7023 132.252 19.5465C132.343 6.81323 137.393 0.55297 144.085 0.644139ZM144.237 33.2218C146.458 33.2218 149.318 29.1192 149.561 19.6984C149.865 9.27478 146.397 5.81037 144.237 5.81037C141.834 5.81037 138.762 10.0041 138.762 19.6376C138.762 29.2711 141.53 33.1914 144.237 33.1914V33.2218ZM159.113 10.0953H162.368C163.464 10.0345 164.315 9.12284 164.285 8.0592C164.224 6.05349 164.163 4.07817 164.133 2.61947C164.102 1.647 164.802 0.796087 165.776 0.644139L168.757 0.157906C169.852 -0.0244313 170.886 0.735306 171.008 1.82933C171.951 9.91296 172.073 26.4449 171.434 37.142C171.373 38.236 170.4 39.0566 169.304 38.935L166.293 38.6311C165.289 38.54 164.528 37.689 164.528 36.6558C164.589 34.1335 164.65 30.5475 164.711 28.329C164.711 27.235 163.859 26.3537 162.764 26.3537H159.783C158.748 26.3537 157.896 25.5636 157.836 24.5303L157.744 23.3148C157.684 22.1903 158.535 21.2483 159.661 21.2483H162.794C163.859 21.1875 164.741 20.3062 164.711 19.2122C164.711 18.4524 164.711 17.7535 164.65 17.0849C164.62 16.0213 163.737 15.2007 162.673 15.2311H159.174C158.109 15.2919 157.227 14.441 157.197 13.3774V12.101C157.166 11.007 158.018 10.1257 159.113 10.1257V10.0953Z" fill="#2463FF"/>
<path d="M184.789 4.80753L181.777 27.3262C181.412 30.2436 177.001 30.0005 176.94 27.0831L176.301 4.38208C176.362 -1.69583 185.397 -1.23998 184.819 4.83793L184.789 4.80753Z" fill="#2463FF"/>
<path d="M182.869 35.1511C183.142 33.495 182.02 31.9314 180.362 31.6588C178.704 31.3861 177.139 32.5075 176.866 34.1636C176.593 35.8197 177.716 37.3832 179.374 37.6559C181.031 37.9286 182.597 36.8071 182.869 35.1511Z" fill="#2463FF"/>
</svg>
