<svg width="24" height="24" viewBox="0 0 24 24" fill="none" xmlns="http://www.w3.org/2000/svg">
<path d="M21.6147 9.59974C21.6147 9.28148 21.4883 8.97626 21.2633 8.75121C21.0382 8.52617 20.733 8.39974 20.4147 8.39974C20.0965 8.39974 19.7913 8.52617 19.5662 8.75121C19.3412 8.97626 19.2147 9.28148 19.2147 9.59974H21.6147ZM4.81475 9.59974C4.81475 9.28148 4.68832 8.97626 4.46327 8.75121C4.23823 8.52617 3.93301 8.39974 3.61475 8.39974C3.29649 8.39974 2.99126 8.52617 2.76622 8.75121C2.54117 8.97626 2.41475 9.28148 2.41475 9.59974H4.81475ZM21.9663 12.8481C22.1927 13.0667 22.4958 13.1877 22.8104 13.185C23.1251 13.1822 23.426 13.056 23.6485 12.8335C23.871 12.611 23.9972 12.3101 24 11.9954C24.0027 11.6808 23.8817 11.3777 23.6631 11.1513L21.9663 12.8481ZM12.0147 1.19974L12.8631 0.351344C12.6381 0.126378 12.3329 0 12.0147 0C11.6965 0 11.3914 0.126378 11.1663 0.351344L12.0147 1.19974ZM0.366346 11.1513C0.251734 11.262 0.160315 11.3945 0.0974242 11.5409C0.0345334 11.6873 0.00142989 11.8447 4.53081e-05 12.0041C-0.00133927 12.1634 0.0290228 12.3214 0.0893599 12.4689C0.149697 12.6164 0.238801 12.7503 0.351472 12.863C0.464143 12.9757 0.598125 13.0648 0.745601 13.1251C0.893077 13.1855 1.05109 13.2158 1.21043 13.2144C1.36976 13.2131 1.52723 13.18 1.67363 13.1171C1.82004 13.0542 1.95245 12.9628 2.06315 12.8481L0.366346 11.1513ZM6.01475 23.9997H18.0147V21.5997H6.01475V23.9997ZM21.6147 20.3997V9.59974H19.2147V20.3997H21.6147ZM4.81475 20.3997V9.59974H2.41475V20.3997H4.81475ZM23.6631 11.1513L12.8631 0.351344L11.1663 2.04814L21.9663 12.8481L23.6631 11.1513ZM11.1663 0.351344L0.366346 11.1513L2.06315 12.8481L12.8631 2.04814L11.1663 0.351344ZM18.0147 23.9997C18.9695 23.9997 19.8852 23.6205 20.5603 22.9453C21.2355 22.2702 21.6147 21.3545 21.6147 20.3997H19.2147C19.2147 20.718 19.0883 21.0232 18.8633 21.2483C18.6382 21.4733 18.333 21.5997 18.0147 21.5997V23.9997ZM6.01475 21.5997C5.69649 21.5997 5.39126 21.4733 5.16622 21.2483C4.94117 21.0232 4.81475 20.718 4.81475 20.3997H2.41475C2.41475 21.3545 2.79403 22.2702 3.46916 22.9453C4.14429 23.6205 5.05997 23.9997 6.01475 23.9997V21.5997Z" fill="#585858"/>
</svg>
