<svg width="24" height="24" viewBox="0 0 24 24" fill="none" xmlns="http://www.w3.org/2000/svg">
<g clip-path="url(#clip0_308_415)">
<path d="M6.79998 3.30002C6.41998 2.91002 5.79998 2.91002 5.39998 3.27002C3.68998 4.84002 2.50998 6.95002 2.13998 9.34002C2.04998 9.95003 2.51998 10.5 3.12998 10.5C3.61998 10.5 4.02998 10.15 4.10998 9.67002C4.40998 7.73002 5.36998 6.00002 6.75998 4.73002C7.17998 4.35002 7.18998 3.70002 6.78998 3.30002H6.79998Z" fill="#585858"/>
<path d="M20.8599 10.4999C21.4699 10.4999 21.9499 9.94991 21.8499 9.33991C21.4699 6.95991 20.2899 4.83991 18.5999 3.27991C18.1999 2.90991 17.5799 2.91991 17.1999 3.29991C16.7999 3.69991 16.8199 4.34991 17.2299 4.72991C18.6099 5.99991 19.5799 7.72991 19.8799 9.66991C19.9499 10.1499 20.3699 10.4999 20.8599 10.4999Z" fill="#585858"/>
<path d="M18 11C18 7.93 16.36 5.36 13.5 4.68V4C13.5 3.17 12.83 2.5 12 2.5C11.17 2.5 10.5 3.17 10.5 4V4.68C7.63 5.36 6 7.92 6 11V16L4 18V19H20V18L18 16V11Z" fill="#585858"/>
<path d="M12 22C12.14 22 12.27 21.99 12.4 21.96C13.05 21.82 13.58 21.38 13.84 20.78C13.94 20.54 13.99 20.28 13.99 20H9.98999C9.99999 21.1 10.89 22 12 22Z" fill="#585858"/>
</g>
<defs>
<clipPath id="clip0_308_415">
<rect width="24" height="24" fill="white"/>
</clipPath>
</defs>
</svg>
