<svg width="32" height="32" viewBox="0 0 32 32" fill="none" xmlns="http://www.w3.org/2000/svg">
<path d="M8 25.1429V24C8 21.8783 8.84285 19.8435 10.3431 18.3432C11.8434 16.8429 13.8783 16 16 16M16 16C18.1217 16 20.1566 16.8429 21.6569 18.3432C23.1571 19.8435 24 21.8783 24 24V25.1429M16 16C17.2124 16 18.3752 15.5184 19.2325 14.6611C20.0898 13.8038 20.5714 12.641 20.5714 11.4286C20.5714 10.2162 20.0898 9.05343 19.2325 8.19612C18.3752 7.33881 17.2124 6.85718 16 6.85718C14.7876 6.85718 13.6248 7.33881 12.7675 8.19612C11.9102 9.05343 11.4286 10.2162 11.4286 11.4286C11.4286 12.641 11.9102 13.8038 12.7675 14.6611C13.6248 15.5184 14.7876 16 16 16Z" stroke="#585858" stroke-width="1.5" stroke-linecap="round" stroke-linejoin="round"/>
</svg>
